<?xml version="1.0" encoding="utf-8"?>
<!-- Generator: Adobe Illustrator 27.5.0, SVG Export Plug-In . SVG Version: 6.00 Build 0)  -->
<svg version="1.1" xmlns="http://www.w3.org/2000/svg" xmlns:xlink="http://www.w3.org/1999/xlink" x="0px" y="0px"
	 viewBox="0 0 750 500" style="enable-background:new 0 0 750 500;" xml:space="preserve">
<g id="BACKGROUND">
	<rect style="fill:#F2C6AB;" width="750" height="500"/>
</g>
<g id="OBJECTS">
	<path style="fill:#F2D9C9;" d="M132.829,113.934c-57.493,42.559-30.592,238.928,26.385,265.096
		c56.976,26.168,424.091,15.921,477.503-21.621s19.361-201.378-14.562-238.924C588.23,80.939,218.9,50.22,132.829,113.934z"/>
	<g>
		<g>
			<g>
				<polygon style="fill:#301225;" points="640.821,337.536 468.746,361.981 443.035,361.981 404.311,273.036 433.311,261.709 
					640.821,261.709 				"/>
				<path style="fill:#301225;" d="M186.001,344.41c0-31.064-10.913-56.247-24.374-56.247l0,0h-38.725
					c-13.461,0-24.374,25.183-24.374,56.247s10.913,56.247,24.374,56.247c20.814,1.646,38.725,0,38.725,0l0,0
					C175.089,400.657,186.001,375.474,186.001,344.41z"/>
				<polygon style="fill:#301225;" points="181.658,357.262 203.699,357.262 210.521,362.926 246.905,362.926 253.202,357.262 
					266.671,357.262 279.616,370.477 323.522,370.477 323.522,340.562 178.16,340.562 				"/>
				<path style="fill:#301225;" d="M495.041,358.474c21.085,8.071,42.469,15.362,64.093,21.854c0.037-2.376,0.69-4.669,1.915-6.706
					c-13.137-6.258-26.341-12.567-39.478-18.825C512.435,355.138,503.874,356.124,495.041,358.474z"/>
				<path style="fill:#301225;" d="M402.713,345.208c0-31.065-10.913-56.247-24.374-56.247l0,0h-38.725
					c-13.461,0-24.374,25.183-24.374,56.247c0,31.064,10.913,56.247,24.374,56.247c20.814,1.646,38.725,0,38.725,0l0,0
					C391.801,401.456,402.713,376.273,402.713,345.208z"/>
				<g>
					<ellipse style="fill:#301225;" cx="575.957" cy="344.41" rx="24.374" ry="56.247"/>
					<path style="fill:#301225;" d="M575.957,288.162v112.495c20.815,1.646,38.725,0,38.725,0V288.162H575.957z"/>
					<ellipse style="fill:#49213B;" cx="614.682" cy="344.41" rx="24.374" ry="56.247"/>
					<path style="fill:#F5E7D8;" d="M630.211,344.408c0,18.929-5.654,34.274-12.627,34.274c-2.929,0-5.619-2.707-7.764-7.24
						c-2.958-6.273-4.863-16.051-4.863-27.033c0-10.983,1.905-20.754,4.863-27.028c2.139-4.539,4.835-7.24,7.764-7.24
						C624.557,310.14,630.211,325.48,630.211,344.408z"/>
					<path style="fill:#F2C6AB;" d="M614.683,344.408c0,10.983-1.905,20.76-4.863,27.033c-2.235-4.738-3.868-11.478-4.527-19.224
						c-0.222-2.508-0.336-5.125-0.336-7.809c0-2.935,0.137-5.79,0.392-8.509c0.7-7.451,2.303-13.923,4.47-18.519
						C612.778,323.654,614.683,333.425,614.683,344.408z"/>
					<path style="fill:#F5E7D8;" d="M613.449,344.493c0,4.778-4.732,6.854-8.156,7.724c-0.222-2.508-0.336-5.125-0.336-7.809
						c0-2.935,0.137-5.79,0.392-8.509C608.7,337.065,613.449,339.596,613.449,344.493z"/>
				</g>
				<g>
					<ellipse style="fill:#301225;" cx="404.311" cy="344.41" rx="24.374" ry="56.247"/>
					<path style="fill:#301225;" d="M404.311,288.162v112.495c20.814,1.646,38.724,0,38.724,0V288.162H404.311z"/>
					<ellipse style="fill:#49213B;" cx="443.035" cy="344.41" rx="24.374" ry="56.247"/>
					<path style="fill:#F5E7D8;" d="M458.564,344.408c0,18.929-5.654,34.274-12.627,34.274c-2.929,0-5.619-2.707-7.764-7.24
						c-2.958-6.273-4.863-16.051-4.863-27.033c0-10.983,1.905-20.754,4.863-27.028c2.139-4.539,4.835-7.24,7.764-7.24
						C452.911,310.14,458.564,325.48,458.564,344.408z"/>
					<path style="fill:#F2C6AB;" d="M443.037,344.408c0,10.983-1.905,20.76-4.863,27.033c-2.235-4.738-3.868-11.478-4.527-19.224
						c-0.222-2.508-0.336-5.125-0.336-7.809c0-2.935,0.137-5.79,0.392-8.509c0.7-7.451,2.303-13.923,4.471-18.519
						C441.132,323.654,443.037,333.425,443.037,344.408z"/>
					<path style="fill:#F5E7D8;" d="M441.803,344.493c0,4.778-4.732,6.854-8.156,7.724c-0.222-2.508-0.336-5.125-0.336-7.809
						c0-2.935,0.137-5.79,0.392-8.509C437.054,337.065,441.803,339.596,441.803,344.493z"/>
				</g>
			</g>
			<g>
				<g>
					<path style="fill:#F05042;" d="M225.5,207.01c-2.082-2.151-24.579-5.809-27.646-1.38c-3.067,4.429-2.341,16.627,2.669,18.515
						c5.01,1.888,21.637-0.508,24.396-1.815C227.679,221.023,227.679,209.26,225.5,207.01z"/>
					<path style="fill:#F2C6AB;" d="M222.886,215.676c1.033,5.615,10.552,11.641,10.552,11.641c2.759,2.251-1.065,7.867-5.276,4.43
						c-1.549-8.374-10.165-10.843-10.165-10.843C214.077,217.321,219.498,211.416,222.886,215.676z"/>
				</g>
				<path style="fill:#49213B;" d="M667.69,231.322c-0.655-2.786-3.141-4.755-6.002-4.755h-40.52l9.391,14.231l40.292,3.962
					L667.69,231.322z"/>
				<path style="fill:#F05042;" d="M681.945,274.592c0,6.901-3.053,12.495-5.324,12.495c-2.271,0-8.699-5.594-8.699-12.495
					c0-6.901,6.428-12.495,8.699-12.495C678.892,262.097,681.945,267.691,681.945,274.592z"/>
				<path style="fill:#49213B;" d="M678.918,293.291c0,3.154-1.395,5.711-2.434,5.711c-1.038,0-3.977-2.557-3.977-5.711
					c0-3.154,2.938-5.711,3.977-5.711C677.523,287.58,678.918,290.137,678.918,293.291z"/>
				<path style="fill:#E88069;" d="M677.831,274.776c-0.011,0.983-0.034,1.955-0.078,2.938c-0.112,3.072-0.357,6.133-0.693,9.105
					c-0.022,0.156-0.033,0.302-0.056,0.458c-1.765,15.383-5.787,28.387-5.787,28.387l-30.398,21.874
					c-0.246-23.371-4.815-39.782-12.747-48.697c-0.391-0.436-0.793-0.86-1.195-1.262c-3.005-2.983-6.446-4.96-10.289-5.91
					c-1.776-0.447-3.642-0.67-5.586-0.67c-1.988,0-3.843,0.492-5.563,1.385c-2.301,1.206-4.368,3.139-6.256,5.619
					c-0.447,0.57-0.871,1.184-1.296,1.81c-13.562,20.511-16.992,69.699-25.415,69.699l-68.079,1.62l-35.648,0.849
					c2.826-26.342,1.463-52.104-6.234-67.822c-0.827-1.687-1.72-3.262-2.704-4.703c-0.749-1.106-1.53-2.134-2.368-3.083
					c-3.821-4.346-8.591-7.027-14.423-7.541c-0.402-0.034-0.804-0.056-1.218-0.067c-5.943-0.201-10.736,3.463-14.746,9.205
					c-0.972,1.396-1.888,2.905-2.759,4.513c-0.536,0.949-1.039,1.944-1.53,2.96c-9.887,20.31-14.299,51.97-21.55,51.97H76.995
					c0,0-4.256-12.199,7.742-20.142l-7.306-4.066c-36.017-7.027-32.006-55.031-17.673-64.404
					c51.69-32.811,165.74-32.598,165.74-32.598s24.689-47.635,68.839-60.996c44.139-13.35,203.88-8.122,252.386,12.49
					c48.495,20.622,61.376,40.374,61.376,40.374l28.722,14.232h23.404c3.43,0,6.513,2.1,7.753,5.295
					c1.709,4.357,4.055,10.222,5.374,12.803c2.044,4.044,3.273,8.781,3.91,13.83c0.279,2.156,0.447,4.368,0.525,6.602
					C677.831,272.14,677.842,273.458,677.831,274.776z"/>
				<path style="fill:#F05042;" d="M560.24,321.719c-5.083,1.631-9.083,6.122-10.01,11.373c-0.916,5.195,0.905,10.959-1.631,15.595
					c-1.709,3.128-5.15,5.016-8.658,5.675c-3.508,0.659-7.127,0.235-10.658-0.268c-3.53-0.503-7.105-1.084-10.658-0.737
					c-5.53,0.525-10.736,3.463-14.232,7.775l-35.648,0.849c2.826-26.342,1.463-52.104-6.234-67.822
					c-0.827-1.687-1.72-3.262-2.704-4.703c-0.749-1.106-1.53-2.134-2.368-3.083c-3.821-4.346-8.591-7.027-14.423-7.541
					c4.58-1.553,9.596-1.743,14.266-0.514c4.39,1.151,8.367,3.474,12.657,4.949c6.491,2.223,13.663,2.413,20.265,0.536
					c4.379-1.24,8.781-3.664,10.736-7.775c0.983,4.625-1.218,9.607-5.105,12.3c-1.877,1.296-4.055,2.022-6.156,2.893
					c-2.1,0.86-4.212,1.922-5.664,3.676c-1.452,1.743-2.089,4.334-1.006,6.334c0.983,1.821,3.195,2.748,5.262,2.625
					c2.067-0.123,3.988-1.128,5.63-2.391c1.642-1.251,3.072-2.77,4.636-4.111c8.457-7.228,21.237-8.915,31.269-4.133
					c-5.027-2.145-11.093-1.72-15.964,0.771c-3.474,1.776-6.468,4.871-7.183,8.703s1.452,8.256,5.217,9.261
					c3.597,0.961,7.183-1.207,10.479-2.938c4.916-2.581,10.322-4.379,15.864-4.647c5.552-0.268,11.25,1.05,15.808,4.223
					c-7.049-4.178-17.092-2.592-22.935,3.15c-2.983,2.938-5.027,6.904-8.613,9.049c-4.48,2.681-10.099,1.866-15.305,1.586
					c-3.005-0.168-6.245-0.056-8.691,1.698c-2.067,1.475-3.285,4.044-3.184,6.591c0.101,2.536,1.475,4.983,3.542,6.446
					c3.899,2.759,9.418,1.81,13.517-0.626c4.1-2.447,7.284-6.122,10.993-9.127c3.709-2.994,8.412-5.396,13.104-4.524
					c-2.491,0.648-4.837,1.687-6.792,3.351c-1.966,1.676-3.407,4.055-3.608,6.614c-0.19,2.569,0.994,5.295,3.217,6.591
					c2.357,1.374,5.44,0.983,7.798-0.391c2.357-1.374,4.1-3.575,5.63-5.832c1.542-2.257,2.916-4.636,4.792-6.613
					C550.733,323.127,555.57,321.071,560.24,321.719z"/>
				<path style="fill:#8AB295;" d="M639.012,341.026h2.777l32.674-22.972c2.738-2.432-0.097-7.769-4.211-4.26l-29.476,21.25h-2.049
					C638.919,338.437,639.012,341.026,639.012,341.026z"/>
				<path style="opacity:0.5;fill:#FFFFFF;" d="M677.828,274.777l-220.391,11.597c-4.072-4.647-9.242-7.383-15.635-7.604
					c-5.944-0.205-10.738,3.464-14.742,9.203l-69.19,3.64c0.319-9.771-0.819-21.101-5.5-31.692l324.896,4.311
					C677.703,267.644,677.862,271.199,677.828,274.777z"/>
				<g style="opacity:0.5;">
					<path style="fill:#FFFFFF;" d="M599.179,288c1.888-2.48,3.964-4.414,6.262-5.614l-111.387,7.206L599.179,288z"/>
					<path style="fill:#FFFFFF;" d="M616.589,281.664c3.839,0.956,7.28,2.935,10.289,5.915l50.182-0.762
						c0.33-2.975,0.58-6.035,0.694-9.106L616.589,281.664z"/>
				</g>
				<path style="fill:#F05042;" d="M77.04,262.798c101.991-6.897,244.884,0,244.884,0v52.278c-148.412,4.139-244.884,0-244.884,0
					V262.798z"/>
				<g>
					<path style="fill:#8AB295;" d="M413.895,330.457H142.049c-2.199,0-3.981-1.782-3.981-3.981s1.782-3.981,3.981-3.981h271.846
						c2.199,0,3.981,1.782,3.981,3.981S416.094,330.457,413.895,330.457z"/>
					<path style="fill:#B7DEC3;" d="M351.549,330.457H79.703c-2.199,0-3.981-1.782-3.981-3.981s1.782-3.981,3.981-3.981h271.846
						c2.199,0,3.981,1.782,3.981,3.981S353.748,330.457,351.549,330.457z"/>
				</g>
				<g>
					<path style="fill:#B7DEC3;" d="M476.388,188.762c-0.006,2.997-0.188,6.177-0.489,9.373c-1.337,14.31-4.982,28.939-4.982,28.939
						H230.92c0,0,0.427-0.717,1.24-1.985c2.906-4.533,10.71-16.142,21.471-27.557c5.386-5.716,11.518-11.387,18.144-16.09
						c4.749-3.373,9.749-6.245,14.913-8.293c16.358-6.484,84.627-9.123,134.183-6.763c8.662,0.41,16.756,0.973,23.894,1.701
						c16.722,1.689,28.239,4.254,29.735,7.775c0.273,0.643,0.512,1.337,0.717,2.076
						C476.058,180.925,476.388,184.673,476.388,188.762z"/>
					<path style="fill:#8AB295;" d="M476.388,188.762c-20.879-2.133-41.878-3.157-62.86-3.066
						c-8.168,0.034-16.716,0.341-23.82,4.368c-7.155,4.055-11.916,11.472-14.458,19.298c-1.866,5.756-2.673,11.699-3.185,17.711
						h-38.187c0.859-5.762,1.507-11.58,0.887-17.359c-0.745-6.871-3.515-13.798-8.884-18.149c-3.964-3.208-8.981-4.772-13.929-6
						c-13.11-3.253-26.681-4.641-40.178-4.124c4.749-3.373,9.749-6.245,14.913-8.293c25.907-10.266,182.028-10.903,187.812,2.713
						C475.87,179.087,476.388,183.66,476.388,188.762z"/>
					<g style="opacity:0.5;">
						<path style="fill:#FFFFFF;" d="M420.871,166.387c-55.745,10.38-111.49,20.766-167.24,31.146
							c-10.761,11.415-18.565,23.024-21.471,27.557c69.958-22.205,140.923-41.23,212.605-57.002
							C437.626,167.359,429.533,166.796,420.871,166.387z"/>
						<path style="fill:#FFFFFF;" d="M475.216,177.939c-72.853,16.375-145.712,32.755-218.571,49.136h90.997
							c42.754-9.646,85.508-19.293,128.257-28.939c0.301-3.197,0.483-6.376,0.489-9.373
							C476.388,184.673,476.058,180.925,475.216,177.939z"/>
					</g>
					<path style="fill:#B7DEC3;" d="M566.81,204.591c-0.506,2.559-1.792,4.186-1.792,4.186l-0.461,0.614l-11.95,16.022l-1.24,1.661
						H479.92c3.873-9.038,4.448-20.032,4.948-29.712c0.142-2.775,0.279-5.443,0.489-7.929c0.7-8.321,2.184-14.561,7.343-15.8
						c0.489-0.119,1.018-0.216,1.581-0.296c13.235-1.939,45.444,5.921,61.876,15.254C566.543,194.49,567.595,200.649,566.81,204.591
						z"/>
					<path style="fill:#8AB295;" d="M566.81,204.591c-7.712-3.583-30.736-12.024-81.453-15.158c0.7-8.321,2.184-14.561,7.343-15.8
						c12.052-2.901,46.326,5.227,63.457,14.959C566.543,194.49,567.595,200.649,566.81,204.591z"/>
					<path style="opacity:0.5;fill:#FFFFFF;" d="M564.558,209.391l-11.95,16.022c-22.438-9.686-45.024-19.037-67.74-28.052
						c0.142-2.775,0.279-5.443,0.489-7.929c0.7-8.321,2.184-14.561,7.343-15.8c0.489-0.119,1.018-0.216,1.581-0.296
						C517.948,184.878,541.381,196.895,564.558,209.391z"/>
				</g>
				<g>
					<path style="fill:#F05042;" d="M520.001,226.324c-1.593,0.597-4.351,0.768-7.462,0.677c-0.842-0.023-1.706-0.068-2.582-0.125
						c-0.626-0.045-1.251-0.097-1.877-0.148c-2.104-0.193-4.197-0.461-6.063-0.751c-3.043-0.478-5.494-1.035-6.41-1.467
						c-2.764-1.308-2.764-13.07-0.586-15.323c1.257-1.297,9.919-3.14,17.285-3.43c2.804-0.108,5.415,0.006,7.354,0.461
						c0.802,0.182,1.484,0.427,2.025,0.739c0.421,0.245,0.757,0.523,0.984,0.853c0.66,0.95,1.143,2.264,1.45,3.754
						C525.228,217.007,523.937,224.839,520.001,226.324z"/>
					<g style="opacity:0.5;">
						<path style="fill:#FFFFFF;" d="M512.305,205.757l-10.289,20.22c1.866,0.29,3.959,0.557,6.063,0.751l11.58-20.51
							C517.72,205.763,515.109,205.649,512.305,205.757z"/>
						<path style="fill:#FFFFFF;" d="M522.668,207.81c-0.227-0.33-0.563-0.609-0.984-0.853l-11.728,19.918
							c0.876,0.057,1.74,0.102,2.582,0.125l11.58-15.436C523.812,210.074,523.328,208.76,522.668,207.81z"/>
					</g>
					<path style="fill:#FFFFFF;" d="M513.408,225.337c-6.022,0-14.322-1.252-16.197-2.092c-0.983-0.441-1.465-2.078-1.696-3.375
						c-0.592-3.321-0.22-8.217,1.146-9.553l0,0c1.38-1.35,12.59-3.39,19.473-2.82c2.617,0.216,4.281,0.786,4.945,1.694
						c1.714,2.342,2.146,7.376,0.964,11.221c-0.495,1.609-1.48,3.668-3.368,4.341C517.508,225.169,515.61,225.337,513.408,225.337z
						 M513.616,207.686c-6.665,0-15.594,1.697-16.756,2.834l0,0c-1.17,1.144-1.697,5.75-1.065,9.3
						c0.31,1.737,0.854,2.861,1.532,3.165c2.537,1.138,16.942,3.039,21.253,1.501c1.776-0.634,2.716-2.61,3.191-4.157
						c1.159-3.77,0.745-8.691-0.922-10.97c-0.605-0.827-2.244-1.373-4.739-1.579C515.333,207.716,514.494,207.686,513.616,207.686z"
						/>
					<path style="fill:#49213B;" d="M497.637,217.854c-1.033,5.615-10.552,11.641-10.552,11.641
						c-2.759,2.251,1.065,7.867,5.276,4.43c1.549-8.374,10.165-10.843,10.165-10.843C506.447,219.5,501.025,213.594,497.637,217.854
						z"/>
				</g>
				<g>
					
						<path style="fill:none;stroke:#49213B;stroke-width:1.094;stroke-linecap:round;stroke-linejoin:round;stroke-miterlimit:10;" d="
						M479.92,229.495c21.105,61.766-8.907,129.921-8.907,129.921"/>
					
						<path style="fill:none;stroke:#49213B;stroke-width:1.094;stroke-linecap:round;stroke-linejoin:round;stroke-miterlimit:10;" d="
						M554.465,229.495c40.199,66.089,12.551,126.629,12.551,126.629"/>
					
						<line style="fill:none;stroke:#49213B;stroke-width:1.094;stroke-linecap:round;stroke-linejoin:round;stroke-miterlimit:10;" x1="479.92" y1="353.607" x2="572.859" y2="352.058"/>
					
						<path style="fill:none;stroke:#49213B;stroke-width:1.094;stroke-linecap:round;stroke-linejoin:round;stroke-miterlimit:10;" d="
						M353.654,317.383c0,0,3.731-11.148,4.214-25.771c0.319-9.771-0.819-21.101-5.5-31.692h-0.006
						c-0.256-0.591-0.529-1.183-0.813-1.769c0,0,17.234-22.847,113.076-26.914"/>
					
						<path style="fill:none;stroke:#49213B;stroke-width:1.094;stroke-linecap:round;stroke-linejoin:round;stroke-miterlimit:10;" d="
						M556.595,225.913c20.911-12.101,48.599-7.551,48.599-7.551"/>
					
						<path style="fill:none;stroke:#49213B;stroke-width:1.094;stroke-linecap:round;stroke-linejoin:round;stroke-miterlimit:10;" d="
						M411.184,308.76c8.616-31.851,23.525-38.241,33.109-37.176"/>
					
						<path style="fill:none;stroke:#49213B;stroke-width:1.094;stroke-linecap:round;stroke-linejoin:round;stroke-miterlimit:10;" d="
						M284.749,172.062c28.608-13.457,178.036-12.876,190.815,0.339c5.916,6.117,3.049,21.928,3.049,21.928"/>
				</g>
				<g>
					<g>
						<ellipse style="fill:#F05042;" cx="321.924" cy="288.937" rx="18.588" ry="26.139"/>
						<path style="fill:#F5E7D8;" d="M336.306,288.939c0,1.052-0.051,2.087-0.154,3.1c-1.069,10.829-7.684,19.167-15.681,19.167
							c-3.834,0-7.343-1.911-10.079-5.096c-0.717-0.83-1.376-1.74-1.962-2.73c-0.148-0.233-0.29-0.472-0.415-0.711
							c-1.32-2.343-2.298-5.068-2.849-8.037c-0.347-1.82-0.529-3.725-0.529-5.693c0-12.297,7.092-22.267,15.835-22.267
							c2.98,0,5.767,1.154,8.145,3.168c3.06,2.582,5.449,6.586,6.706,11.358c0.188,0.7,0.347,1.416,0.478,2.15
							C336.13,285.134,336.306,287.005,336.306,288.939z"/>
						<path style="fill:#F2C6AB;" d="M321.661,306.986c-0.757,0.193-1.536,0.301-2.332,0.301c-2.383,0-4.613-0.899-6.535-2.463
							c-0.99-0.808-1.894-1.792-2.696-2.923c-0.131-0.182-0.262-0.37-0.387-0.563c-1.496-2.298-2.582-5.13-3.094-8.27
							c-0.222-1.325-0.336-2.707-0.336-4.129c0-10.135,5.841-18.354,13.048-18.354c0.796,0,1.575,0.108,2.332,0.301
							c-5.972,1.519-10.534,8.742-10.71,17.518c-0.006,0.176-0.006,0.358-0.006,0.535c0,3.617,0.745,6.99,2.031,9.828
							c0.119,0.262,0.239,0.517,0.37,0.768c0.694,1.382,1.524,2.622,2.463,3.68C317.469,305.103,319.471,306.428,321.661,306.986z"
							/>
						<g style="opacity:0.5;">
							<path style="fill:#FFFFFF;" d="M335.322,281.198c-7.451,5.858-14.902,11.717-22.347,17.569
								c-1.086,0.859-2.178,1.712-3.265,2.571c-1.496-2.298-2.582-5.13-3.094-8.27c1.439-1.558,2.884-3.111,4.334-4.664
								c5.836-6.239,11.722-12.428,17.666-18.564C331.677,272.422,334.066,276.426,335.322,281.198z"/>
							<path style="fill:#FFFFFF;" d="M336.306,288.939c0,1.052-0.051,2.087-0.154,3.1c-6.746,3.782-13.531,7.508-20.345,11.176
								c-1.007,0.54-2.008,1.075-3.014,1.61c-0.99-0.808-1.894-1.792-2.696-2.923c0.142-0.108,0.29-0.216,0.432-0.318
								c0.939-0.688,1.877-1.371,2.815-2.048c7.456-5.432,14.981-10.778,22.455-16.187
								C336.13,285.134,336.306,287.005,336.306,288.939z"/>
						</g>
					</g>
					<g>
						<ellipse style="fill:#F05042;" cx="77.04" cy="288.937" rx="18.588" ry="26.139"/>
						<ellipse style="fill:#F5E7D8;" cx="75.588" cy="288.937" rx="15.834" ry="22.267"/>
						<path style="fill:#F2C6AB;" d="M66.325,288.937c0-9.014,4.623-16.504,10.715-18.051c-0.758-0.192-1.537-0.298-2.334-0.298
							c-7.207,0-13.049,8.216-13.049,18.35s5.842,18.35,13.049,18.35c0.797,0,1.576-0.106,2.334-0.298
							C70.948,305.441,66.325,297.951,66.325,288.937z"/>
						<g style="opacity:0.5;">
							<path style="fill:#FFFFFF;" d="M90.901,281.198c-7.451,5.858-14.902,11.717-22.347,17.569
								c-1.086,0.859-2.178,1.712-3.265,2.571c-1.496-2.298-2.582-5.13-3.094-8.27c1.439-1.558,2.884-3.111,4.334-4.664
								c5.836-6.239,11.722-12.428,17.666-18.564C87.255,272.422,89.644,276.426,90.901,281.198z"/>
							<path style="fill:#FFFFFF;" d="M91.885,288.939c0,1.052-0.051,2.087-0.154,3.1c-6.746,3.782-13.531,7.508-20.345,11.176
								c-1.007,0.54-2.008,1.075-3.014,1.61c-0.99-0.808-1.894-1.792-2.696-2.923c0.142-0.108,0.29-0.216,0.432-0.318
								c0.938-0.688,1.877-1.371,2.815-2.048c7.457-5.432,14.981-10.778,22.455-16.187
								C91.709,285.134,91.885,287.005,91.885,288.939z"/>
						</g>
					</g>
				</g>
				<g>
					<path style="fill:#301225;" d="M186.043,311.794c-28.558,0-53.05-0.845-74.876-2.581c-3.204-0.255-5.713-2.976-5.713-6.194
						v-28.305c0-3.172,2.372-5.828,5.517-6.179c23.825-2.655,50.394-4.001,78.969-4.001c29.174,0,60.715,1.339,96.426,4.093
						c3.218,0.249,5.739,2.972,5.739,6.199v28.078c0,3.327-2.604,6.054-5.928,6.209c-38.586,1.804-71.339,2.681-100.13,2.681
						C186.046,311.794,186.045,311.794,186.043,311.794z"/>
					<path style="fill:#49213B;" d="M286.155,271.378c-62.77-4.841-122.094-5.983-174.878-0.101
						c-1.747,0.195-3.063,1.678-3.063,3.435v28.305c0,1.798,1.379,3.3,3.172,3.443c49.215,3.917,109.589,2.937,174.664-0.105
						c1.843-0.086,3.297-1.607,3.297-3.453v-28.078C289.347,273.021,287.955,271.517,286.155,271.378z"/>
					<g>
						
							<line style="fill:none;stroke:#301225;stroke-width:3.282;stroke-miterlimit:10;" x1="108.359" y1="274.682" x2="290.17" y2="275.263"/>
						
							<line style="fill:none;stroke:#301225;stroke-width:3.282;stroke-miterlimit:10;" x1="289.977" y1="279.91" x2="107.197" y2="281.652"/>
						
							<line style="fill:none;stroke:#301225;stroke-width:3.282;stroke-miterlimit:10;" x1="107.391" y1="289.204" x2="289.589" y2="289.01"/>
						<path style="fill:none;stroke:#301225;stroke-width:3.282;stroke-miterlimit:10;" d="M290.945,298.304
							c-0.065,0-0.129,0-0.194,0l-183.361-0.194"/>
						
							<line style="fill:none;stroke:#301225;stroke-width:3.282;stroke-miterlimit:10;" x1="107.584" y1="300.434" x2="289.977" y2="304.306"/>
						<path style="fill:none;stroke:#301225;stroke-width:3.282;stroke-miterlimit:10;" d="M107.778,293.27
							c1.033,0.064,2.065,0.129,3.098,0.194l179.101,0.387"/>
						
							<line style="fill:none;stroke:#301225;stroke-width:3.282;stroke-miterlimit:10;" x1="290.122" y1="284.508" x2="107.149" y2="285.961"/>
						<path style="fill:none;stroke:#301225;stroke-width:3.282;stroke-miterlimit:10;" d="M108.455,305.565
							c0.097,0,0.194,0,0.291,0l141.804,2.977"/>
						<path style="fill:none;stroke:#301225;stroke-width:3.282;stroke-miterlimit:10;" d="M114.074,270.586
							c2.614,0.048,140.324-2.052,140.324-2.052"/>
						
							<line style="fill:none;stroke:#301225;stroke-width:3.282;stroke-miterlimit:10;" x1="134.595" y1="268.099" x2="136.918" y2="309.631"/>
						<path style="fill:none;stroke:#301225;stroke-width:3.282;stroke-miterlimit:10;" d="M237.892,266.937
							c0,0.065,0,0.129,0,0.194l-4.26,42.791"/>
					</g>
				</g>
				<g>
					<path style="fill:#F05042;" d="M321.188,341.201h-18.901c-2.011,0-3.64-1.63-3.64-3.64l0,0c0-2.01,1.63-3.64,3.64-3.64h18.901
						c2.01,0,3.64,1.63,3.64,3.64l0,0C324.829,339.571,323.199,341.201,321.188,341.201z"/>
					<path style="fill:#F05042;" d="M111.877,341.201H92.976c-2.01,0-3.64-1.63-3.64-3.64l0,0c0-2.01,1.63-3.64,3.64-3.64h18.901
						c2.01,0,3.64,1.63,3.64,3.64l0,0C115.517,339.571,113.887,341.201,111.877,341.201z"/>
				</g>
				<path style="opacity:0.5;fill:#FFFFFF;" d="M65.955,258.805c132.825-11.424,279.978-0.654,279.978-0.654
					s16.458-26.599,122.757-28.656H224.919C191.229,229.495,107.391,236.732,65.955,258.805z"/>
				<path style="opacity:0.5;fill:#FFFFFF;" d="M344.345,253.664l-62.791-1.975c0,0,39.209-14.593,118.787-19.604
					C354.743,238.62,344.345,253.664,344.345,253.664z"/>
				<g>
					<path style="fill:#F05042;" d="M180.386,235.28c0,0-13.457,3.001-12.682,4.066c0.775,1.065,96.714,2.759,99.619,2.178
						c2.904-0.581,42.25-9.415,41.989-10.286c-0.261-0.871-11.951-0.532-11.951-0.532L180.386,235.28z"/>
					<path style="fill:#301225;" d="M300.434,231.725c-1.456,0.893-32.823,6.655-34.712,6.945c-1.888,0.29-84.371,0.58-87.806-2.178
						c-3.435-2.758-7.201-30.372,0.245-34.564c5.563-3.128,77.546-1.302,83.205-1.302c5.665,0,36.594,6.967,39.068,10.016
						C302.902,213.69,301.884,230.827,300.434,231.725z"/>
					<path style="fill:#49213B;" d="M300.434,231.725c-1.456,0.893-32.823,6.655-34.712,6.945
						c2.616-1.866-0.142-36.759-4.357-38.045c5.665,0,36.594,6.967,39.068,10.016C302.902,213.69,301.884,230.827,300.434,231.725z"
						/>
					<g>
						<g>
							<ellipse style="fill:#B7DEC3;" cx="191.954" cy="219.648" rx="9.754" ry="14.447"/>
							<path style="fill:#301225;" d="M186.41,219.648c0-6.293,2.785-11.541,6.482-12.737c-0.519-0.168-1.056-0.257-1.605-0.257
								c-4.467,0-8.087,5.818-8.087,12.994c0,7.177,3.621,12.994,8.087,12.994c0.55,0,1.087-0.089,1.605-0.257
								C189.194,231.188,186.41,225.941,186.41,219.648z"/>
						</g>
						<g>
							<ellipse style="fill:#B7DEC3;" cx="217.319" cy="219.648" rx="9.754" ry="14.447"/>
							<path style="fill:#301225;" d="M211.774,219.648c0-6.293,2.785-11.541,6.482-12.737c-0.519-0.168-1.056-0.257-1.605-0.257
								c-4.467,0-8.087,5.818-8.087,12.994c0,7.177,3.621,12.994,8.087,12.994c0.55,0,1.086-0.089,1.605-0.257
								C214.559,231.188,211.774,225.941,211.774,219.648z"/>
						</g>
						<g>
							<ellipse style="fill:#B7DEC3;" cx="242.683" cy="219.648" rx="9.754" ry="14.447"/>
							<path style="fill:#301225;" d="M237.139,219.648c0-6.293,2.785-11.541,6.482-12.737c-0.519-0.168-1.056-0.257-1.605-0.257
								c-4.467,0-8.087,5.818-8.087,12.994c0,7.177,3.621,12.994,8.087,12.994c0.55,0,1.086-0.089,1.605-0.257
								C239.923,231.188,237.139,225.941,237.139,219.648z"/>
						</g>
					</g>
				</g>
				<g>
					<g>
						<path style="fill:#F2C6AB;" d="M554.828,373.964l-11.183,3.332c-3.847,1.146-7.975,0.892-11.653-0.716l-34.213-14.965
							l30.998-0.738l31.515-7.46L554.828,373.964z"/>
						<path style="fill:#49213B;" d="M561.535,364.991c-1.855,5.629-5.126,9.61-7.307,8.892s-2.444-5.864-0.589-11.494
							c1.855-5.629,5.126-9.61,7.307-8.892S563.39,359.361,561.535,364.991z"/>
					</g>
					<g>
						<path style="fill:#FFFFFF;" d="M541.468,373.964l-11.183,3.332c-3.847,1.146-7.975,0.892-11.653-0.716l-34.213-14.965
							l30.998-0.738l31.515-7.46L541.468,373.964z"/>
						<path style="fill:#49213B;" d="M548.175,364.991c-1.855,5.629-5.126,9.61-7.307,8.892s-2.444-5.864-0.589-11.494
							c1.855-5.629,5.126-9.61,7.307-8.892S550.03,359.361,548.175,364.991z"/>
					</g>
				</g>
			</g>
		</g>
	</g>
	<g>
		<g>
			<path style="fill:#FFFFFF;" d="M656.994,125.54l-23.545-4.509c-0.117-1.857-1.964-3.226-3.81-3.457
				c-1.846-0.231-4.518-0.134-6.274,0.48c2.301-5.249,0.151-12.044-4.751-15.013c-4.902-2.969-11.92-1.729-15.506,2.741
				c0.138-4.62,0.241-9.302-0.817-13.802s-3.42-8.869-7.28-11.413c-3.731-2.459-8.443-2.964-12.897-2.613
				c-8.741,0.689-17.301,4.575-23.13,11.124c-5.829,6.55-8.708,15.781-7.051,24.391c-1.858-1.386-4.229-2.181-6.521-1.836
				s-4.435,1.953-5.097,4.175c-0.662,2.222,0.34,5.013,2.487,5.887c-11.121,1.152-21.986,3.844-33.166,3.844H656.994z"/>
			<path style="fill:#FFFFFF;" d="M186.001,157.891l-11.264-2.6c-0.573-1.166-1.622-2.088-2.851-2.507
				c-1.229-0.419-2.397-0.362-3.562,0.212c1.928-4.594,3.175-9.617,2.504-14.553c-0.671-4.936-3.524-9.759-8.044-11.855
				c-3.133-1.453-6.828-1.489-10.111-0.417c-3.283,1.072-6.165,3.194-8.442,5.791c-1.12-10.491-9.444-19.722-19.68-22.281
				s-21.722,1.497-28.382,9.681c-6.66,8.184-8.344,20.014-4.596,29.878c-1.85-1.515-4.939-1.141-6.375,0.771
				c-1.435,1.913-0.872,4.852,1.1,6.204c-6.343,0.549-12.542,1.676-18.908,1.676H186.001z"/>
			<path style="fill:#FFFFFF;" d="M694.873,165.529h-60.73c3.228,0,6.27-0.838,9.48-1.175c-1.814-1.033-2.207-4.023-0.894-5.646
				c1.313-1.623,4.116-1.691,5.506-0.134c-1.106-4.943,0.787-10.287,4.291-13.945c3.504-3.659,8.438-5.737,13.456-6.433
				c3.335-0.462,6.933-0.298,9.776,1.507c2.706,1.718,4.395,4.765,4.95,7.922c0.555,3.157,0.076,6.42-0.833,9.494
				c1.502-1.464,4.1-1.613,5.76-0.331c1.66,1.282,2.171,3.834,1.134,5.657C689.957,162.668,691.873,164.422,694.873,165.529z"/>
			<path style="fill:#FFFFFF;" d="M245.609,105.761H196.64c2.47,0,4.848-1.504,7.272-1.976c-1.969-0.925-3.411-2.984-3.405-5.16
				c0.005-2.176,1.58-4.306,3.706-4.769c2.126-0.462,4.54,0.961,4.995,3.089c-0.281-4.825,1.646-9.681,4.954-13.205
				c3.308-3.523,7.919-5.727,12.707-6.382c3.351-0.459,6.925-0.145,9.821,1.602c3.829,2.31,5.915,6.837,6.257,11.296
				s-0.831,8.893-2.266,13.129C241.892,103.63,244.615,105.026,245.609,105.761z"/>
		</g>
		<g>
			<polygon style="fill:#E8B392;" points="132.983,198.757 131.115,193.672 129.246,198.757 124.162,200.625 129.246,202.493 
				131.115,207.578 132.983,202.493 138.068,200.625 			"/>
			<polygon style="fill:#E8B392;" points="478.256,116.322 476.388,111.237 474.52,116.322 469.435,118.19 474.52,120.058 
				476.388,125.143 478.256,120.058 483.341,118.19 			"/>
			<polygon style="fill:#E8B392;" points="669.789,205.818 667.921,200.733 666.053,205.818 660.968,207.686 666.053,209.554 
				667.921,214.639 669.789,209.554 674.874,207.686 			"/>
			<polygon style="fill:#E8B392;" points="151.278,215.237 150.344,212.695 149.41,215.237 146.867,216.171 149.41,217.105 
				150.344,219.648 151.278,217.105 153.82,216.171 			"/>
			<polygon style="fill:#E8B392;" points="432.15,110.303 431.216,107.76 430.281,110.303 427.739,111.237 430.281,112.171 
				431.216,114.714 432.15,112.171 434.692,111.237 			"/>
			<polygon style="fill:#E8B392;" points="208.499,169.386 207.564,166.844 206.63,169.386 204.088,170.32 206.63,171.254 
				207.564,173.797 208.499,171.254 211.041,170.32 			"/>
			<polygon style="fill:#E8B392;" points="573.793,161.293 572.859,158.75 571.925,161.293 569.383,162.227 571.925,163.161 
				572.859,165.703 573.793,163.161 576.336,162.227 			"/>
			<polygon style="fill:#E8B392;" points="70.283,228.561 69.349,226.018 68.415,228.561 65.873,229.495 68.415,230.429 
				69.349,232.971 70.283,230.429 72.826,229.495 			"/>
			<polygon style="fill:#E8B392;" points="699.284,229.707 698.349,227.165 697.415,229.707 694.873,230.641 697.415,231.575 
				698.349,234.118 699.284,231.575 701.826,230.641 			"/>
			<polygon style="fill:#E8B392;" points="545.161,95.274 544.227,92.731 543.293,95.274 540.751,96.208 543.293,97.142 
				544.227,99.684 545.161,97.142 547.704,96.208 			"/>
		</g>
	</g>
</g>
</svg>
